<?xml version="1.0" standalone="no"?>
<!DOCTYPE svg PUBLIC "-//W3C//DTD SVG 20010904//EN"
 "http://www.w3.org/TR/2001/REC-SVG-20010904/DTD/svg10.dtd">
<svg version="1.0" xmlns="http://www.w3.org/2000/svg"
 width="386.000000pt" height="386.000000pt" viewBox="0 0 386.000000 386.000000"
 preserveAspectRatio="xMidYMid meet">
<metadata>
Created by potrace 1.14, written by Peter Selinger 2001-2017
</metadata>
<g transform="translate(0.000000,386.000000) scale(0.100000,-0.100000)"
fill="#000000" stroke="none">
<path d="M1752 3849 c-761 -72 -1413 -590 -1651 -1314 -202 -613 -85 -1280
314 -1790 255 -325 622 -565 1035 -674 84 -22 120 -29 260 -48 66 -9 339 -9
430 0 36 3 90 11 120 17 30 6 66 13 80 16 126 23 319 93 460 166 119 62 145
77 250 153 106 76 125 92 220 185 159 156 281 325 380 525 54 110 136 325 124
325 -2 0 0 8 5 18 6 11 12 30 15 43 2 13 9 45 15 70 10 45 14 69 28 179 9 68
9 358 1 425 -33 251 -92 447 -200 660 -44 87 -118 211 -148 248 -5 7 -32 41
-60 77 -178 229 -456 444 -727 563 -293 129 -639 185 -951 156z"/>
</g>
</svg>
